0
SECTION
2
HEADER
9
$INSUNITS
70
4
0
ENDSEC
0
SECTION
2
TABLES
0
TABLE
2
LTYPE
0
LTYPE
72
65
70
64
2
CONTINUOUS
3
______
73
0
40
0
0
ENDTAB
0
TABLE
2
LAYER
0
ENDTAB
0
ENDSEC
0
SECTION
2
ENTITIES
0
LINE
8
0
10
41.125
20
-3.4775
11
54.125
21
-3.4775
0
LINE
8
0
10
41.125
20
-17.4775
11
54.125
21
-17.4775
0
LINE
8
0
10
40.625
20
-3.9775
11
40.625
21
-16.9775
0
LINE
8
0
10
54.625
20
-3.9775
11
54.625
21
-16.9775
0
ARC
8
0
10
41.125
20
-3.9775
40
0.5
50
90
51
180
0
ARC
8
0
10
54.125
20
-3.9775
40
0.5
50
0
51
90
0
ARC
8
0
10
41.125
20
-16.9775
40
0.5
50
180
51
270
0
ARC
8
0
10
54.125
20
-16.9775
40
0.5
50
270
51
0
0
LINE
8
0
10
136.375
20
-3.4775
11
149.375
21
-3.4775
0
LINE
8
0
10
136.375
20
-17.4775
11
149.375
21
-17.4775
0
LINE
8
0
10
135.875
20
-3.9775
11
135.875
21
-16.9775
0
LINE
8
0
10
149.875
20
-3.9775
11
149.875
21
-16.9775
0
ARC
8
0
10
136.375
20
-3.9775
40
0.5
50
90
51
180
0
ARC
8
0
10
149.375
20
-3.9775
40
0.5
50
0
51
90
0
ARC
8
0
10
136.375
20
-16.9775
40
0.5
50
180
51
270
0
ARC
8
0
10
149.375
20
-16.9775
40
0.5
50
270
51
0
0
LINE
8
0
10
22.075
20
-7.2875
11
35.075
21
-7.2875
0
LINE
8
0
10
22.075
20
-21.2875
11
35.075
21
-21.2875
0
LINE
8
0
10
21.575
20
-7.7875
11
21.575
21
-20.7875
0
LINE
8
0
10
35.575
20
-7.7875
11
35.575
21
-20.7875
0
ARC
8
0
10
22.075
20
-7.7875
40
0.5
50
90
51
180
0
ARC
8
0
10
35.075
20
-7.7875
40
0.5
50
0
51
90
0
ARC
8
0
10
22.075
20
-20.7875
40
0.5
50
180
51
270
0
ARC
8
0
10
35.075
20
-20.7875
40
0.5
50
270
51
0
0
LINE
8
0
10
60.175
20
-7.2875
11
73.175
21
-7.2875
0
LINE
8
0
10
60.175
20
-21.2875
11
73.175
21
-21.2875
0
LINE
8
0
10
59.675
20
-7.7875
11
59.675
21
-20.7875
0
LINE
8
0
10
73.675
20
-7.7875
11
73.675
21
-20.7875
0
ARC
8
0
10
60.175
20
-7.7875
40
0.5
50
90
51
180
0
ARC
8
0
10
73.175
20
-7.7875
40
0.5
50
0
51
90
0
ARC
8
0
10
60.175
20
-20.7875
40
0.5
50
180
51
270
0
ARC
8
0
10
73.175
20
-20.7875
40
0.5
50
270
51
0
0
LINE
8
0
10
79.225
20
-7.2875
11
92.225
21
-7.2875
0
LINE
8
0
10
79.225
20
-21.2875
11
92.225
21
-21.2875
0
LINE
8
0
10
78.725
20
-7.7875
11
78.725
21
-20.7875
0
LINE
8
0
10
92.725
20
-7.7875
11
92.725
21
-20.7875
0
ARC
8
0
10
79.225
20
-7.7875
40
0.5
50
90
51
180
0
ARC
8
0
10
92.225
20
-7.7875
40
0.5
50
0
51
90
0
ARC
8
0
10
79.225
20
-20.7875
40
0.5
50
180
51
270
0
ARC
8
0
10
92.225
20
-20.7875
40
0.5
50
270
51
0
0
LINE
8
0
10
98.275
20
-7.2875
11
111.275
21
-7.2875
0
LINE
8
0
10
98.275
20
-21.2875
11
111.275
21
-21.2875
0
LINE
8
0
10
97.775
20
-7.7875
11
97.775
21
-20.7875
0
LINE
8
0
10
111.775
20
-7.7875
11
111.775
21
-20.7875
0
ARC
8
0
10
98.275
20
-7.7875
40
0.5
50
90
51
180
0
ARC
8
0
10
111.275
20
-7.7875
40
0.5
50
0
51
90
0
ARC
8
0
10
98.275
20
-20.7875
40
0.5
50
180
51
270
0
ARC
8
0
10
111.275
20
-20.7875
40
0.5
50
270
51
0
0
LINE
8
0
10
117.325
20
-7.2875
11
130.325
21
-7.2875
0
LINE
8
0
10
117.325
20
-21.2875
11
130.325
21
-21.2875
0
LINE
8
0
10
116.825
20
-7.7875
11
116.825
21
-20.7875
0
LINE
8
0
10
130.825
20
-7.7875
11
130.825
21
-20.7875
0
ARC
8
0
10
117.325
20
-7.7875
40
0.5
50
90
51
180
0
ARC
8
0
10
130.325
20
-7.7875
40
0.5
50
0
51
90
0
ARC
8
0
10
117.325
20
-20.7875
40
0.5
50
180
51
270
0
ARC
8
0
10
130.325
20
-20.7875
40
0.5
50
270
51
0
0
LINE
8
0
10
155.425
20
-7.2875
11
168.425
21
-7.2875
0
LINE
8
0
10
155.425
20
-21.2875
11
168.425
21
-21.2875
0
LINE
8
0
10
154.925
20
-7.7875
11
154.925
21
-20.7875
0
LINE
8
0
10
168.925
20
-7.7875
11
168.925
21
-20.7875
0
ARC
8
0
10
155.425
20
-7.7875
40
0.5
50
90
51
180
0
ARC
8
0
10
168.425
20
-7.7875
40
0.5
50
0
51
90
0
ARC
8
0
10
155.425
20
-20.7875
40
0.5
50
180
51
270
0
ARC
8
0
10
168.425
20
-20.7875
40
0.5
50
270
51
0
0
LINE
8
0
10
41.125
20
-22.5275
11
54.125
21
-22.5275
0
LINE
8
0
10
41.125
20
-36.5275
11
54.125
21
-36.5275
0
LINE
8
0
10
40.625
20
-23.0275
11
40.625
21
-36.0275
0
LINE
8
0
10
54.625
20
-23.0275
11
54.625
21
-36.0275
0
ARC
8
0
10
41.125
20
-23.0275
40
0.5
50
90
51
180
0
ARC
8
0
10
54.125
20
-23.0275
40
0.5
50
0
51
90
0
ARC
8
0
10
41.125
20
-36.0275
40
0.5
50
180
51
270
0
ARC
8
0
10
54.125
20
-36.0275
40
0.5
50
270
51
0
0
LINE
8
0
10
136.375
20
-22.5275
11
149.375
21
-22.5275
0
LINE
8
0
10
136.375
20
-36.5275
11
149.375
21
-36.5275
0
LINE
8
0
10
135.875
20
-23.0275
11
135.875
21
-36.0275
0
LINE
8
0
10
149.875
20
-23.0275
11
149.875
21
-36.0275
0
ARC
8
0
10
136.375
20
-23.0275
40
0.5
50
90
51
180
0
ARC
8
0
10
149.375
20
-23.0275
40
0.5
50
0
51
90
0
ARC
8
0
10
136.375
20
-36.0275
40
0.5
50
180
51
270
0
ARC
8
0
10
149.375
20
-36.0275
40
0.5
50
270
51
0
0
LINE
8
0
10
3.025
20
-26.3375
11
16.025
21
-26.3375
0
LINE
8
0
10
3.025
20
-40.3375
11
16.025
21
-40.3375
0
LINE
8
0
10
2.525
20
-26.8375
11
2.525
21
-39.8375
0
LINE
8
0
10
16.525
20
-26.8375
11
16.525
21
-39.8375
0
ARC
8
0
10
3.025
20
-26.8375
40
0.5
50
90
51
180
0
ARC
8
0
10
16.025
20
-26.8375
40
0.5
50
0
51
90
0
ARC
8
0
10
3.025
20
-39.8375
40
0.5
50
180
51
270
0
ARC
8
0
10
16.025
20
-39.8375
40
0.5
50
270
51
0
0
LINE
8
0
10
22.075
20
-26.3375
11
35.075
21
-26.3375
0
LINE
8
0
10
22.075
20
-40.3375
11
35.075
21
-40.3375
0
LINE
8
0
10
21.575
20
-26.8375
11
21.575
21
-39.8375
0
LINE
8
0
10
35.575
20
-26.8375
11
35.575
21
-39.8375
0
ARC
8
0
10
22.075
20
-26.8375
40
0.5
50
90
51
180
0
ARC
8
0
10
35.075
20
-26.8375
40
0.5
50
0
51
90
0
ARC
8
0
10
22.075
20
-39.8375
40
0.5
50
180
51
270
0
ARC
8
0
10
35.075
20
-39.8375
40
0.5
50
270
51
0
0
LINE
8
0
10
60.175
20
-26.3375
11
73.175
21
-26.3375
0
LINE
8
0
10
60.175
20
-40.3375
11
73.175
21
-40.3375
0
LINE
8
0
10
59.675
20
-26.8375
11
59.675
21
-39.8375
0
LINE
8
0
10
73.675
20
-26.8375
11
73.675
21
-39.8375
0
ARC
8
0
10
60.175
20
-26.8375
40
0.5
50
90
51
180
0
ARC
8
0
10
73.175
20
-26.8375
40
0.5
50
0
51
90
0
ARC
8
0
10
60.175
20
-39.8375
40
0.5
50
180
51
270
0
ARC
8
0
10
73.175
20
-39.8375
40
0.5
50
270
51
0
0
LINE
8
0
10
79.225
20
-26.3375
11
92.225
21
-26.3375
0
LINE
8
0
10
79.225
20
-40.3375
11
92.225
21
-40.3375
0
LINE
8
0
10
78.725
20
-26.8375
11
78.725
21
-39.8375
0
LINE
8
0
10
92.725
20
-26.8375
11
92.725
21
-39.8375
0
ARC
8
0
10
79.225
20
-26.8375
40
0.5
50
90
51
180
0
ARC
8
0
10
92.225
20
-26.8375
40
0.5
50
0
51
90
0
ARC
8
0
10
79.225
20
-39.8375
40
0.5
50
180
51
270
0
ARC
8
0
10
92.225
20
-39.8375
40
0.5
50
270
51
0
0
LINE
8
0
10
98.275
20
-26.3375
11
111.275
21
-26.3375
0
LINE
8
0
10
98.275
20
-40.3375
11
111.275
21
-40.3375
0
LINE
8
0
10
97.775
20
-26.8375
11
97.775
21
-39.8375
0
LINE
8
0
10
111.775
20
-26.8375
11
111.775
21
-39.8375
0
ARC
8
0
10
98.275
20
-26.8375
40
0.5
50
90
51
180
0
ARC
8
0
10
111.275
20
-26.8375
40
0.5
50
0
51
90
0
ARC
8
0
10
98.275
20
-39.8375
40
0.5
50
180
51
270
0
ARC
8
0
10
111.275
20
-39.8375
40
0.5
50
270
51
0
0
LINE
8
0
10
117.325
20
-26.3375
11
130.325
21
-26.3375
0
LINE
8
0
10
117.325
20
-40.3375
11
130.325
21
-40.3375
0
LINE
8
0
10
116.825
20
-26.8375
11
116.825
21
-39.8375
0
LINE
8
0
10
130.825
20
-26.8375
11
130.825
21
-39.8375
0
ARC
8
0
10
117.325
20
-26.8375
40
0.5
50
90
51
180
0
ARC
8
0
10
130.325
20
-26.8375
40
0.5
50
0
51
90
0
ARC
8
0
10
117.325
20
-39.8375
40
0.5
50
180
51
270
0
ARC
8
0
10
130.325
20
-39.8375
40
0.5
50
270
51
0
0
LINE
8
0
10
155.425
20
-26.3375
11
168.425
21
-26.3375
0
LINE
8
0
10
155.425
20
-40.3375
11
168.425
21
-40.3375
0
LINE
8
0
10
154.925
20
-26.8375
11
154.925
21
-39.8375
0
LINE
8
0
10
168.925
20
-26.8375
11
168.925
21
-39.8375
0
ARC
8
0
10
155.425
20
-26.8375
40
0.5
50
90
51
180
0
ARC
8
0
10
168.425
20
-26.8375
40
0.5
50
0
51
90
0
ARC
8
0
10
155.425
20
-39.8375
40
0.5
50
180
51
270
0
ARC
8
0
10
168.425
20
-39.8375
40
0.5
50
270
51
0
0
LINE
8
0
10
174.475
20
-26.3375
11
187.475
21
-26.3375
0
LINE
8
0
10
174.475
20
-40.3375
11
187.475
21
-40.3375
0
LINE
8
0
10
173.975
20
-26.8375
11
173.975
21
-39.8375
0
LINE
8
0
10
187.975
20
-26.8375
11
187.975
21
-39.8375
0
ARC
8
0
10
174.475
20
-26.8375
40
0.5
50
90
51
180
0
ARC
8
0
10
187.475
20
-26.8375
40
0.5
50
0
51
90
0
ARC
8
0
10
174.475
20
-39.8375
40
0.5
50
180
51
270
0
ARC
8
0
10
187.475
20
-39.8375
40
0.5
50
270
51
0
0
LINE
8
0
10
41.125
20
-41.5775
11
54.125
21
-41.5775
0
LINE
8
0
10
41.125
20
-55.5775
11
54.125
21
-55.5775
0
LINE
8
0
10
40.625
20
-42.0775
11
40.625
21
-55.0775
0
LINE
8
0
10
54.625
20
-42.0775
11
54.625
21
-55.0775
0
ARC
8
0
10
41.125
20
-42.0775
40
0.5
50
90
51
180
0
ARC
8
0
10
54.125
20
-42.0775
40
0.5
50
0
51
90
0
ARC
8
0
10
41.125
20
-55.0775
40
0.5
50
180
51
270
0
ARC
8
0
10
54.125
20
-55.0775
40
0.5
50
270
51
0
0
LINE
8
0
10
136.375
20
-41.5775
11
149.375
21
-41.5775
0
LINE
8
0
10
136.375
20
-55.5775
11
149.375
21
-55.5775
0
LINE
8
0
10
135.875
20
-42.0775
11
135.875
21
-55.0775
0
LINE
8
0
10
149.875
20
-42.0775
11
149.875
21
-55.0775
0
ARC
8
0
10
136.375
20
-42.0775
40
0.5
50
90
51
180
0
ARC
8
0
10
149.375
20
-42.0775
40
0.5
50
0
51
90
0
ARC
8
0
10
136.375
20
-55.0775
40
0.5
50
180
51
270
0
ARC
8
0
10
149.375
20
-55.0775
40
0.5
50
270
51
0
0
LINE
8
0
10
3.025
20
-45.3875
11
16.025
21
-45.3875
0
LINE
8
0
10
3.025
20
-59.3875
11
16.025
21
-59.3875
0
LINE
8
0
10
2.525
20
-45.8875
11
2.525
21
-58.8875
0
LINE
8
0
10
16.525
20
-45.8875
11
16.525
21
-58.8875
0
ARC
8
0
10
3.025
20
-45.8875
40
0.5
50
90
51
180
0
ARC
8
0
10
16.025
20
-45.8875
40
0.5
50
0
51
90
0
ARC
8
0
10
3.025
20
-58.8875
40
0.5
50
180
51
270
0
ARC
8
0
10
16.025
20
-58.8875
40
0.5
50
270
51
0
0
LINE
8
0
10
22.075
20
-45.3875
11
35.075
21
-45.3875
0
LINE
8
0
10
22.075
20
-59.3875
11
35.075
21
-59.3875
0
LINE
8
0
10
21.575
20
-45.8875
11
21.575
21
-58.8875
0
LINE
8
0
10
35.575
20
-45.8875
11
35.575
21
-58.8875
0
ARC
8
0
10
22.075
20
-45.8875
40
0.5
50
90
51
180
0
ARC
8
0
10
35.075
20
-45.8875
40
0.5
50
0
51
90
0
ARC
8
0
10
22.075
20
-58.8875
40
0.5
50
180
51
270
0
ARC
8
0
10
35.075
20
-58.8875
40
0.5
50
270
51
0
0
LINE
8
0
10
60.175
20
-45.3875
11
73.175
21
-45.3875
0
LINE
8
0
10
60.175
20
-59.3875
11
73.175
21
-59.3875
0
LINE
8
0
10
59.675
20
-45.8875
11
59.675
21
-58.8875
0
LINE
8
0
10
73.675
20
-45.8875
11
73.675
21
-58.8875
0
ARC
8
0
10
60.175
20
-45.8875
40
0.5
50
90
51
180
0
ARC
8
0
10
73.175
20
-45.8875
40
0.5
50
0
51
90
0
ARC
8
0
10
60.175
20
-58.8875
40
0.5
50
180
51
270
0
ARC
8
0
10
73.175
20
-58.8875
40
0.5
50
270
51
0
0
LINE
8
0
10
79.225
20
-45.3875
11
92.225
21
-45.3875
0
LINE
8
0
10
79.225
20
-59.3875
11
92.225
21
-59.3875
0
LINE
8
0
10
78.725
20
-45.8875
11
78.725
21
-58.8875
0
LINE
8
0
10
92.725
20
-45.8875
11
92.725
21
-58.8875
0
ARC
8
0
10
79.225
20
-45.8875
40
0.5
50
90
51
180
0
ARC
8
0
10
92.225
20
-45.8875
40
0.5
50
0
51
90
0
ARC
8
0
10
79.225
20
-58.8875
40
0.5
50
180
51
270
0
ARC
8
0
10
92.225
20
-58.8875
40
0.5
50
270
51
0
0
LINE
8
0
10
98.275
20
-45.3875
11
111.275
21
-45.3875
0
LINE
8
0
10
98.275
20
-59.3875
11
111.275
21
-59.3875
0
LINE
8
0
10
97.775
20
-45.8875
11
97.775
21
-58.8875
0
LINE
8
0
10
111.775
20
-45.8875
11
111.775
21
-58.8875
0
ARC
8
0
10
98.275
20
-45.8875
40
0.5
50
90
51
180
0
ARC
8
0
10
111.275
20
-45.8875
40
0.5
50
0
51
90
0
ARC
8
0
10
98.275
20
-58.8875
40
0.5
50
180
51
270
0
ARC
8
0
10
111.275
20
-58.8875
40
0.5
50
270
51
0
0
LINE
8
0
10
117.325
20
-45.3875
11
130.325
21
-45.3875
0
LINE
8
0
10
117.325
20
-59.3875
11
130.325
21
-59.3875
0
LINE
8
0
10
116.825
20
-45.8875
11
116.825
21
-58.8875
0
LINE
8
0
10
130.825
20
-45.8875
11
130.825
21
-58.8875
0
ARC
8
0
10
117.325
20
-45.8875
40
0.5
50
90
51
180
0
ARC
8
0
10
130.325
20
-45.8875
40
0.5
50
0
51
90
0
ARC
8
0
10
117.325
20
-58.8875
40
0.5
50
180
51
270
0
ARC
8
0
10
130.325
20
-58.8875
40
0.5
50
270
51
0
0
LINE
8
0
10
155.425
20
-45.3875
11
168.425
21
-45.3875
0
LINE
8
0
10
155.425
20
-59.3875
11
168.425
21
-59.3875
0
LINE
8
0
10
154.925
20
-45.8875
11
154.925
21
-58.8875
0
LINE
8
0
10
168.925
20
-45.8875
11
168.925
21
-58.8875
0
ARC
8
0
10
155.425
20
-45.8875
40
0.5
50
90
51
180
0
ARC
8
0
10
168.425
20
-45.8875
40
0.5
50
0
51
90
0
ARC
8
0
10
155.425
20
-58.8875
40
0.5
50
180
51
270
0
ARC
8
0
10
168.425
20
-58.8875
40
0.5
50
270
51
0
0
LINE
8
0
10
174.475
20
-45.3875
11
187.475
21
-45.3875
0
LINE
8
0
10
174.475
20
-59.3875
11
187.475
21
-59.3875
0
LINE
8
0
10
173.975
20
-45.8875
11
173.975
21
-58.8875
0
LINE
8
0
10
187.975
20
-45.8875
11
187.975
21
-58.8875
0
ARC
8
0
10
174.475
20
-45.8875
40
0.5
50
90
51
180
0
ARC
8
0
10
187.475
20
-45.8875
40
0.5
50
0
51
90
0
ARC
8
0
10
174.475
20
-58.8875
40
0.5
50
180
51
270
0
ARC
8
0
10
187.475
20
-58.8875
40
0.5
50
270
51
0
0
LINE
8
0
10
60.175
20
-69.2
11
73.175
21
-69.2
0
LINE
8
0
10
60.175
20
-83.2
11
73.175
21
-83.2
0
LINE
8
0
10
59.675
20
-69.7
11
59.675
21
-82.7
0
LINE
8
0
10
73.675
20
-69.7
11
73.675
21
-82.7
0
ARC
8
0
10
60.175
20
-69.7
40
0.5
50
90
51
180
0
ARC
8
0
10
73.175
20
-69.7
40
0.5
50
0
51
90
0
ARC
8
0
10
60.175
20
-82.7
40
0.5
50
180
51
270
0
ARC
8
0
10
73.175
20
-82.7
40
0.5
50
270
51
0
0
LINE
8
0
10
81.613
20
-82.2
11
75.613
21
-82.2
0
LINE
8
0
10
81.613
20
-67.2
11
75.613
21
-67.2
0
LINE
8
0
10
82.113
20
-81.7
11
82.113
21
-67.7
0
LINE
8
0
10
75.113
20
-81.7
11
75.113
21
-67.7
0
ARC
8
0
10
81.613
20
-81.7
40
0.5
50
270
51
0
0
ARC
8
0
10
75.613
20
-81.7
40
0.5
50
180
51
270
0
ARC
8
0
10
81.613
20
-67.7
40
0.5
50
0
51
90
0
ARC
8
0
10
75.613
20
-67.7
40
0.5
50
90
51
180
0
LINE
8
0
10
57.737
20
-82.2
11
51.737
21
-82.2
0
LINE
8
0
10
57.737
20
-67.2
11
51.737
21
-67.2
0
LINE
8
0
10
58.237
20
-81.7
11
58.237
21
-67.7
0
LINE
8
0
10
51.237
20
-81.7
11
51.237
21
-67.7
0
ARC
8
0
10
57.737
20
-81.7
40
0.5
50
270
51
0
0
ARC
8
0
10
51.737
20
-81.7
40
0.5
50
180
51
270
0
ARC
8
0
10
57.737
20
-67.7
40
0.5
50
0
51
90
0
ARC
8
0
10
51.737
20
-67.7
40
0.5
50
90
51
180
0
LINE
8
0
10
50.65
20
-69.2
11
63.65
21
-69.2
0
LINE
8
0
10
50.65
20
-83.2
11
63.65
21
-83.2
0
LINE
8
0
10
50.15
20
-69.7
11
50.15
21
-82.7
0
LINE
8
0
10
64.15
20
-69.7
11
64.15
21
-82.7
0
ARC
8
0
10
50.65
20
-69.7
40
0.5
50
90
51
180
0
ARC
8
0
10
63.65
20
-69.7
40
0.5
50
0
51
90
0
ARC
8
0
10
50.65
20
-82.7
40
0.5
50
180
51
270
0
ARC
8
0
10
63.65
20
-82.7
40
0.5
50
270
51
0
0
LINE
8
0
10
69.7
20
-69.2
11
82.7
21
-69.2
0
LINE
8
0
10
69.7
20
-83.2
11
82.7
21
-83.2
0
LINE
8
0
10
69.2
20
-69.7
11
69.2
21
-82.7
0
LINE
8
0
10
83.2
20
-69.7
11
83.2
21
-82.7
0
ARC
8
0
10
69.7
20
-69.7
40
0.5
50
90
51
180
0
ARC
8
0
10
82.7
20
-69.7
40
0.5
50
0
51
90
0
ARC
8
0
10
69.7
20
-82.7
40
0.5
50
180
51
270
0
ARC
8
0
10
82.7
20
-82.7
40
0.5
50
270
51
0
0
LINE
8
0
10
98.25
20
-82.2
11
92.25
21
-82.2
0
LINE
8
0
10
98.25
20
-67.2
11
92.25
21
-67.2
0
LINE
8
0
10
98.75
20
-81.7
11
98.75
21
-67.7
0
LINE
8
0
10
91.75
20
-81.7
11
91.75
21
-67.7
0
ARC
8
0
10
98.25
20
-81.7
40
0.5
50
270
51
0
0
ARC
8
0
10
92.25
20
-81.7
40
0.5
50
180
51
270
0
ARC
8
0
10
98.25
20
-67.7
40
0.5
50
0
51
90
0
ARC
8
0
10
92.25
20
-67.7
40
0.5
50
90
51
180
0
LINE
8
0
10
60.15
20
-82.2
11
54.15
21
-82.2
0
LINE
8
0
10
60.15
20
-67.2
11
54.15
21
-67.2
0
LINE
8
0
10
60.65
20
-81.7
11
60.65
21
-67.7
0
LINE
8
0
10
53.65
20
-81.7
11
53.65
21
-67.7
0
ARC
8
0
10
60.15
20
-81.7
40
0.5
50
270
51
0
0
ARC
8
0
10
54.15
20
-81.7
40
0.5
50
180
51
270
0
ARC
8
0
10
60.15
20
-67.7
40
0.5
50
0
51
90
0
ARC
8
0
10
54.15
20
-67.7
40
0.5
50
90
51
180
0
LINE
8
0
10
88.75
20
-69.2
11
101.75
21
-69.2
0
LINE
8
0
10
88.75
20
-83.2
11
101.75
21
-83.2
0
LINE
8
0
10
88.25
20
-69.7
11
88.25
21
-82.7
0
LINE
8
0
10
102.25
20
-69.7
11
102.25
21
-82.7
0
ARC
8
0
10
88.75
20
-69.7
40
0.5
50
90
51
180
0
ARC
8
0
10
101.75
20
-69.7
40
0.5
50
0
51
90
0
ARC
8
0
10
88.75
20
-82.7
40
0.5
50
180
51
270
0
ARC
8
0
10
101.75
20
-82.7
40
0.5
50
270
51
0
0
LINE
8
0
10
117.3
20
-82.2
11
111.3
21
-82.2
0
LINE
8
0
10
117.3
20
-67.2
11
111.3
21
-67.2
0
LINE
8
0
10
117.8
20
-81.7
11
117.8
21
-67.7
0
LINE
8
0
10
110.8
20
-81.7
11
110.8
21
-67.7
0
ARC
8
0
10
117.3
20
-81.7
40
0.5
50
270
51
0
0
ARC
8
0
10
111.3
20
-81.7
40
0.5
50
180
51
270
0
ARC
8
0
10
117.3
20
-67.7
40
0.5
50
0
51
90
0
ARC
8
0
10
111.3
20
-67.7
40
0.5
50
90
51
180
0
LINE
8
0
10
79.2
20
-82.2
11
73.2
21
-82.2
0
LINE
8
0
10
79.2
20
-67.2
11
73.2
21
-67.2
0
LINE
8
0
10
79.7
20
-81.7
11
79.7
21
-67.7
0
LINE
8
0
10
72.7
20
-81.7
11
72.7
21
-67.7
0
ARC
8
0
10
79.2
20
-81.7
40
0.5
50
270
51
0
0
ARC
8
0
10
73.2
20
-81.7
40
0.5
50
180
51
270
0
ARC
8
0
10
79.2
20
-67.7
40
0.5
50
0
51
90
0
ARC
8
0
10
73.2
20
-67.7
40
0.5
50
90
51
180
0
LINE
8
0
10
69.7
20
-69.2
11
82.7
21
-69.2
0
LINE
8
0
10
69.7
20
-83.2
11
82.7
21
-83.2
0
LINE
8
0
10
69.2
20
-69.7
11
69.2
21
-82.7
0
LINE
8
0
10
83.2
20
-69.7
11
83.2
21
-82.7
0
ARC
8
0
10
69.7
20
-69.7
40
0.5
50
90
51
180
0
ARC
8
0
10
82.7
20
-69.7
40
0.5
50
0
51
90
0
ARC
8
0
10
69.7
20
-82.7
40
0.5
50
180
51
270
0
ARC
8
0
10
82.7
20
-82.7
40
0.5
50
270
51
0
0
LINE
8
0
10
88.75
20
-69.2
11
101.75
21
-69.2
0
LINE
8
0
10
88.75
20
-83.2
11
101.75
21
-83.2
0
LINE
8
0
10
88.25
20
-69.7
11
88.25
21
-82.7
0
LINE
8
0
10
102.25
20
-69.7
11
102.25
21
-82.7
0
ARC
8
0
10
88.75
20
-69.7
40
0.5
50
90
51
180
0
ARC
8
0
10
101.75
20
-69.7
40
0.5
50
0
51
90
0
ARC
8
0
10
88.75
20
-82.7
40
0.5
50
180
51
270
0
ARC
8
0
10
101.75
20
-82.7
40
0.5
50
270
51
0
0
LINE
8
0
10
107.8
20
-69.2
11
120.8
21
-69.2
0
LINE
8
0
10
107.8
20
-83.2
11
120.8
21
-83.2
0
LINE
8
0
10
107.3
20
-69.7
11
107.3
21
-82.7
0
LINE
8
0
10
121.3
20
-69.7
11
121.3
21
-82.7
0
ARC
8
0
10
107.8
20
-69.7
40
0.5
50
90
51
180
0
ARC
8
0
10
120.8
20
-69.7
40
0.5
50
0
51
90
0
ARC
8
0
10
107.8
20
-82.7
40
0.5
50
180
51
270
0
ARC
8
0
10
120.8
20
-82.7
40
0.5
50
270
51
0
0
LINE
8
0
10
136.35
20
-82.2
11
130.35
21
-82.2
0
LINE
8
0
10
136.35
20
-67.2
11
130.35
21
-67.2
0
LINE
8
0
10
136.85
20
-81.7
11
136.85
21
-67.7
0
LINE
8
0
10
129.85
20
-81.7
11
129.85
21
-67.7
0
ARC
8
0
10
136.35
20
-81.7
40
0.5
50
270
51
0
0
ARC
8
0
10
130.35
20
-81.7
40
0.5
50
180
51
270
0
ARC
8
0
10
136.35
20
-67.7
40
0.5
50
0
51
90
0
ARC
8
0
10
130.35
20
-67.7
40
0.5
50
90
51
180
0
LINE
8
0
10
98.25
20
-82.2
11
92.25
21
-82.2
0
LINE
8
0
10
98.25
20
-67.2
11
92.25
21
-67.2
0
LINE
8
0
10
98.75
20
-81.7
11
98.75
21
-67.7
0
LINE
8
0
10
91.75
20
-81.7
11
91.75
21
-67.7
0
ARC
8
0
10
98.25
20
-81.7
40
0.5
50
270
51
0
0
ARC
8
0
10
92.25
20
-81.7
40
0.5
50
180
51
270
0
ARC
8
0
10
98.25
20
-67.7
40
0.5
50
0
51
90
0
ARC
8
0
10
92.25
20
-67.7
40
0.5
50
90
51
180
0
LINE
8
0
10
117.325
20
-69.2
11
130.325
21
-69.2
0
LINE
8
0
10
117.325
20
-83.2
11
130.325
21
-83.2
0
LINE
8
0
10
116.825
20
-69.7
11
116.825
21
-82.7
0
LINE
8
0
10
130.825
20
-69.7
11
130.825
21
-82.7
0
ARC
8
0
10
117.325
20
-69.7
40
0.5
50
90
51
180
0
ARC
8
0
10
130.325
20
-69.7
40
0.5
50
0
51
90
0
ARC
8
0
10
117.325
20
-82.7
40
0.5
50
180
51
270
0
ARC
8
0
10
130.325
20
-82.7
40
0.5
50
270
51
0
0
LINE
8
0
10
138.763
20
-82.2
11
132.763
21
-82.2
0
LINE
8
0
10
138.763
20
-67.2
11
132.763
21
-67.2
0
LINE
8
0
10
139.263
20
-81.7
11
139.263
21
-67.7
0
LINE
8
0
10
132.263
20
-81.7
11
132.263
21
-67.7
0
ARC
8
0
10
138.763
20
-81.7
40
0.5
50
270
51
0
0
ARC
8
0
10
132.763
20
-81.7
40
0.5
50
180
51
270
0
ARC
8
0
10
138.763
20
-67.7
40
0.5
50
0
51
90
0
ARC
8
0
10
132.763
20
-67.7
40
0.5
50
90
51
180
0
LINE
8
0
10
114.887
20
-82.2
11
108.887
21
-82.2
0
LINE
8
0
10
114.887
20
-67.2
11
108.887
21
-67.2
0
LINE
8
0
10
115.387
20
-81.7
11
115.387
21
-67.7
0
LINE
8
0
10
108.387
20
-81.7
11
108.387
21
-67.7
0
ARC
8
0
10
114.887
20
-81.7
40
0.5
50
270
51
0
0
ARC
8
0
10
108.887
20
-81.7
40
0.5
50
180
51
270
0
ARC
8
0
10
114.887
20
-67.7
40
0.5
50
0
51
90
0
ARC
8
0
10
108.887
20
-67.7
40
0.5
50
90
51
180
0
LINE
8
0
10
107.8
20
-69.2
11
120.8
21
-69.2
0
LINE
8
0
10
107.8
20
-83.2
11
120.8
21
-83.2
0
LINE
8
0
10
107.3
20
-69.7
11
107.3
21
-82.7
0
LINE
8
0
10
121.3
20
-69.7
11
121.3
21
-82.7
0
ARC
8
0
10
107.8
20
-69.7
40
0.5
50
90
51
180
0
ARC
8
0
10
120.8
20
-69.7
40
0.5
50
0
51
90
0
ARC
8
0
10
107.8
20
-82.7
40
0.5
50
180
51
270
0
ARC
8
0
10
120.8
20
-82.7
40
0.5
50
270
51
0
0
LINE
8
0
10
126.85
20
-69.2
11
139.85
21
-69.2
0
LINE
8
0
10
126.85
20
-83.2
11
139.85
21
-83.2
0
LINE
8
0
10
126.35
20
-69.7
11
126.35
21
-82.7
0
LINE
8
0
10
140.35
20
-69.7
11
140.35
21
-82.7
0
ARC
8
0
10
126.85
20
-69.7
40
0.5
50
90
51
180
0
ARC
8
0
10
139.85
20
-69.7
40
0.5
50
0
51
90
0
ARC
8
0
10
126.85
20
-82.7
40
0.5
50
180
51
270
0
ARC
8
0
10
139.85
20
-82.7
40
0.5
50
270
51
0
0
LINE
8
0
10
0
20
-85.725
11
190.5
21
-85.725
0
LINE
8
0
10
0
20
-0.9525
11
190.5
21
-0.9525
0
LINE
8
0
10
0
20
-85.725
11
0
21
-0.9525
0
LINE
8
0
10
190.5
20
-85.725
11
190.5
21
-0.9525
0
ENDSEC
0
EOF